# xmcd CD database file
#
# Track frame offsets:
#	150
#	13467
#	29423
#	42527
#	57982
#	73842
#	90790
#	104030
#	121486
#	135021
#	152173
#	166731
#	177116
#	192470
#	206092
#	220189
#
# Disc length: 3106 seconds
#
# Revision: 0
# Processed by: cddbd v1.5.2PL0 Copyright (c) Steve Scherf et al.
# Submitted via: CDex 1.51
#
DISCID=e50c2010
DTITLE=Truck Stop - Take it easy altes Haus
DYEAR=2011
DGENRE=Country
TTITLE0=Der wilde,wilde Westen (Neuaufbahme)
TTITLE1=Ich möcht so gern Dave Dudley hörn (Neuaufnahme)
TTITLE2=Take it easy altes Haus (Neuaufnahme)
TTITLE3=Alles Bingo
TTITLE4=Gegen den Wind
TTITLE5=Eine Gitarre und eine Ukulele
TTITLE6=Arizona Arizona
TTITLE7=Wenn es Nacht wird in Old Tucson
TTITLE8=Männer mit Hut
TTITLE9=Damenwahl (jetztgehts los)
TTITLE10=Sag Mami Goodbye
TTITLE11=Die Frau mit dem Gurt ( Live)
TTITLE12=Wilder Reiter
TTITLE13=Bitte erlöse uns Elvis
TTITLE14=Waterkant
TTITLE15=Hey, mach mal Pause
EXTD=YEAR: 2011
EXTT0=
EXTT1=
EXTT2=
EXTT3=
EXTT4=
EXTT5=
EXTT6=
EXTT7=
EXTT8=
EXTT9=
EXTT10=
EXTT11=
EXTT12=
EXTT13=
EXTT14=
EXTT15=
PLAYORDER=
